<?xml version="1.0" encoding="utf-8"?>
<!-- Generator: Adobe Illustrator 21.0.2, SVG Export Plug-In . SVG Version: 6.00 Build 0)  -->
<svg version="1.1" id="Layer_1" xmlns="http://www.w3.org/2000/svg" xmlns:xlink="http://www.w3.org/1999/xlink" x="0px" y="0px"
	 viewBox="0 0 1102 641" style="enable-background:new 0 0 1102 641;" xml:space="preserve">
<style type="text/css">
	.st0{fill:#0033CC;}
	.st1{fill:#000099;}
	.st2{fill:#000066;}
	.st3{fill:#000033;}
</style>
<rect class="st0" width="1102" height="354.4"/>
<polygon class="st1" points="1102,208.3 1102,459.8 0,459.8 0,208.3 137.8,170.8 275.5,208.3 413.2,230.6 551,208.3 688.8,151.5 
	826.5,208.3 964.2,170.8 "/>
<polygon class="st2" points="1102,389.2 1102,640.7 0,640.7 0,389.2 137.8,370.5 275.5,389.2 413.2,318.1 551,389.2 688.8,411.5 
	826.5,389.2 964.2,443.9 "/>
<polygon class="st3" points="1102,550.5 1102,802 1101,802 1101,915.5 0,915.5 0,550.5 137.8,611.4 275.5,550.5 413.2,479.4 
	551,550.5 688.8,505.9 826.5,550.5 964.2,605.2 "/>
</svg>
